PathFileType	4	(X/Y/Z)	C:\Users\italobelli\Desktop\GitHub\PTbot_officialCBL\Personal_Results\ABD01_noisy1.trc
DataRate	CameraRate	NumFrames	NumMarkers	Units	OrigDataRate	OrigDataStartFrame	OrigNumFrames
104.666667	104.666667	16	9	m	104.666667	1	1100
Frame#	Time		gu		centelbow		EpL		centpxt8		centijc7		ij		ts		aa		ai
			X1	Y1	Z1	X2	Y2	Z2	X3	Y3	Z3	X4	Y4	Z4	X5	Y5	Z5	X6	Y6	Z6	X7	Y7	Z7	X8	Y8	Z8	X9	Y9	Z9

1	0	-0.074708	-0.022067	0.16389	-0.11221	-0.26102	0.18909	-0.092072	-0.25668	0.21389	-0.046816	-0.15316	-0.008669	-0.046816	0.031938	-0.008669	0	0	0	-0.13674	0.031161	0.060088	-0.099246	0.017538	0.17249	-0.16122	-0.079682	0.06035
2	0.0095541	-0.074732	-0.022065	0.16389	-0.11235	-0.26096	0.18885	-0.092216	-0.25662	0.21365	-0.046816	-0.15316	-0.008669	-0.046816	0.031938	-0.008669	0	0	0	-0.13675	0.031152	0.060084	-0.099261	0.017524	0.17249	-0.16123	-0.079691	0.060339
3	0.019108	-0.074757	-0.022064	0.16389	-0.1125	-0.2609	0.18861	-0.092361	-0.25656	0.21341	-0.046816	-0.15316	-0.008669	-0.046816	0.031938	-0.008669	0	0	0	-0.13676	0.031143	0.06008	-0.099277	0.017509	0.17248	-0.16124	-0.0797	0.060329
4	0.028662	-0.074781	-0.022061	0.16388	-0.11265	-0.26084	0.18836	-0.092507	-0.25651	0.21317	-0.046816	-0.15316	-0.008669	-0.046816	0.031938	-0.008669	0	0	0	-0.13677	0.031133	0.060076	-0.099292	0.017495	0.17248	-0.16125	-0.079709	0.060319
5	0.038217	-0.074805	-0.022059	0.16388	-0.11279	-0.26079	0.18812	-0.092654	-0.25645	0.21292	-0.046816	-0.15316	-0.008669	-0.046816	0.031938	-0.008669	0	0	0	-0.13678	0.031124	0.060073	-0.099306	0.017481	0.17248	-0.16126	-0.079718	0.060309
6	0.047771	-0.074828	-0.022056	0.16388	-0.11294	-0.26073	0.18787	-0.092802	-0.25639	0.21267	-0.046816	-0.15316	-0.008669	-0.046816	0.031938	-0.008669	0	0	0	-0.13679	0.031115	0.06007	-0.099321	0.017466	0.17248	-0.16127	-0.079727	0.060301
7	0.057325	-0.074852	-0.022053	0.16388	-0.11309	-0.26066	0.18762	-0.09295	-0.25633	0.21243	-0.046816	-0.15316	-0.008669	-0.046816	0.031938	-0.008669	0	0	0	-0.13679	0.031105	0.060068	-0.099335	0.017452	0.17248	-0.16128	-0.079736	0.060292
8	0.066879	-0.074875	-0.02205	0.16388	-0.11324	-0.2606	0.18737	-0.093099	-0.25627	0.21218	-0.046816	-0.15316	-0.008669	-0.046816	0.031938	-0.008669	0	0	0	-0.1368	0.031096	0.060065	-0.099349	0.017438	0.17248	-0.16129	-0.079746	0.060284
9	0.076433	-0.074899	-0.022046	0.16388	-0.11339	-0.26054	0.18712	-0.093248	-0.25621	0.21193	-0.046816	-0.15316	-0.008669	-0.046816	0.031938	-0.008669	0	0	0	-0.13681	0.031086	0.060063	-0.099362	0.017424	0.17248	-0.1613	-0.079755	0.060277
10	0.085987	-0.074921	-0.022043	0.16388	-0.11353	-0.26048	0.18688	-0.093397	-0.25615	0.21168	-0.046816	-0.15316	-0.008669	-0.046816	0.031938	-0.008669	0	0	0	-0.13682	0.031077	0.060061	-0.099376	0.017411	0.17248	-0.16131	-0.079764	0.06027
11	0.095541	-0.074944	-0.022038	0.16388	-0.11368	-0.26042	0.18663	-0.093546	-0.25609	0.21144	-0.046816	-0.15316	-0.008669	-0.046816	0.031938	-0.008669	0	0	0	-0.13683	0.031067	0.06006	-0.099389	0.017397	0.17247	-0.16132	-0.079773	0.060263
12	0.1051	-0.074966	-0.022034	0.16388	-0.11383	-0.26036	0.18638	-0.093695	-0.25603	0.21119	-0.046816	-0.15316	-0.008669	-0.046816	0.031938	-0.008669	0	0	0	-0.13684	0.031058	0.060059	-0.099401	0.017383	0.17247	-0.16133	-0.079782	0.060257
13	0.11465	-0.074988	-0.02203	0.16389	-0.11398	-0.2603	0.18613	-0.093844	-0.25597	0.21095	-0.046816	-0.15316	-0.008669	-0.046816	0.031938	-0.008669	0	0	0	-0.13684	0.031049	0.060058	-0.099413	0.01737	0.17247	-0.16134	-0.079791	0.060251
14	0.1242	-0.07501	-0.022025	0.16389	-0.11413	-0.26024	0.18589	-0.093991	-0.25591	0.2107	-0.046816	-0.15316	-0.008669	-0.046816	0.031938	-0.008669	0	0	0	-0.13685	0.031039	0.060057	-0.099425	0.017357	0.17248	-0.16135	-0.079801	0.060246
15	0.13376	-0.075031	-0.02202	0.16389	-0.11427	-0.26018	0.18565	-0.094138	-0.25585	0.21046	-0.046816	-0.15316	-0.008669	-0.046816	0.031938	-0.008669	0	0	0	-0.13686	0.03103	0.060057	-0.099437	0.017344	0.17248	-0.16136	-0.07981	0.060242
16	0.14331	-0.075051	-0.022014	0.16389	-0.11442	-0.26012	0.18541	-0.094285	-0.25579	0.21022	-0.046816	-0.15316	-0.008669	-0.046816	0.031938	-0.008669	0	0	0	-0.13687	0.031021	0.060057	-0.099448	0.017331	0.17248	-0.16137	-0.079819	0.060238
